<svg xmlns="http://www.w3.org/2000/svg" viewBox="0 0 100 100">
  <rect width="100" height="100" rx="22" fill="#4f46e5"/>
  <!-- Map Pin -->
  <path d="M50 12 C32.33 12 18 26.33 18 44 C18 70 50 88 50 88 C50 88 82 70 82 44 C82 26.33 67.67 12 50 12 Z" fill="#ffffff"/>
  <!-- Chat Bubble -->
  <path d="M31 40 C31 30.06 39.06 22 49 22 C58.94 22 67 30.06 67 40 C67 49.94 58.94 58 49 58 C45.02 58 41.34 56.71 38.37 54.5 L28 58 L30.5 49.63 C28.94 46.85 28 43.53 28 40 Z" fill="#4f46e5"/>
  <!-- Three dots in chat bubble -->
  <circle cx="39" cy="40" r="3" fill="#ffffff"/>
  <circle cx="49" cy="40" r="3" fill="#ffffff"/>
  <circle cx="59" cy="40" r="3" fill="#ffffff"/>
</svg>
